<mxfile host="app.diagrams.net" agent="Mozilla/5.0 (Windows NT 10.0; Win64; x64; rv:138.0) Gecko/20100101 Firefox/138.0" version="26.2.14">
  <diagram name="Page-1" id="XOG9hFp-4_riqcvW6nHb">
    <mxGraphModel dx="4470" dy="1024" grid="1" gridSize="10" guides="1" tooltips="1" connect="1" arrows="1" fold="1" page="1" pageScale="1" pageWidth="827" pageHeight="1169" math="0" shadow="0">
      <root>
        <mxCell id="0" />
        <mxCell id="1" parent="0" />
        <mxCell id="0SDqDW_UJInsYtl1_myY-3" value="&lt;span&gt;&lt;/span&gt;&lt;div&gt;&lt;div&gt;&lt;div&gt;&quot;Après un après-midi pluvieux et une longue marche sous un ciel dont les étoiles ont brillé de milles feux vous arrivez..... &quot;&lt;strong&gt;&lt;em&gt;p5 en bas à droite&lt;/em&gt;&lt;/strong&gt;&lt;/div&gt;&lt;/div&gt;&lt;/div&gt;" style="text;whiteSpace=wrap;html=1;labelBorderColor=default;" vertex="1" parent="1">
          <mxGeometry x="-1190" y="300" width="330" height="50" as="geometry" />
        </mxCell>
        <mxCell id="0SDqDW_UJInsYtl1_myY-4" value="" style="endArrow=classic;html=1;rounded=0;entryX=0;entryY=0.5;entryDx=0;entryDy=0;exitX=1;exitY=0.5;exitDx=0;exitDy=0;" edge="1" parent="1" source="0SDqDW_UJInsYtl1_myY-11" target="0SDqDW_UJInsYtl1_myY-3">
          <mxGeometry width="50" height="50" relative="1" as="geometry">
            <mxPoint x="-1270" y="340" as="sourcePoint" />
            <mxPoint x="-1120" y="240" as="targetPoint" />
          </mxGeometry>
        </mxCell>
        <mxCell id="0SDqDW_UJInsYtl1_myY-5" value="Bilbo vous offre ensuite une bonne nuit de sommeil dans l&#39;une des nombreuses chambres d&#39;amis de cul-de-sac. Au matin, vous vous réveillez de bonne heure dans les effluves d&#39;un premier petit déjeuner qui s&#39;annonce copieux.&lt;br class=&quot;soft-break&quot;&gt;&lt;strong&gt;&lt;em&gt;Les PJ peuvent poser toutes leurs questions dont voici quelques éléments&lt;/em&gt;&lt;/strong&gt;" style="rounded=1;whiteSpace=wrap;html=1;" vertex="1" parent="1">
          <mxGeometry x="-780" y="250" width="240" height="150" as="geometry" />
        </mxCell>
        <mxCell id="0SDqDW_UJInsYtl1_myY-6" value="" style="endArrow=classic;html=1;rounded=0;exitX=1;exitY=0.5;exitDx=0;exitDy=0;entryX=0;entryY=0.5;entryDx=0;entryDy=0;" edge="1" parent="1" source="0SDqDW_UJInsYtl1_myY-3" target="0SDqDW_UJInsYtl1_myY-5">
          <mxGeometry width="50" height="50" relative="1" as="geometry">
            <mxPoint x="-860" y="290" as="sourcePoint" />
            <mxPoint x="-810" y="240" as="targetPoint" />
          </mxGeometry>
        </mxCell>
        <mxCell id="0SDqDW_UJInsYtl1_myY-8" value="&lt;div align=&quot;right&quot;&gt;&lt;font face=&quot;Verdana&quot;&gt;&lt;br&gt;&lt;/font&gt;&lt;/div&gt;&lt;div align=&quot;left&quot;&gt;&lt;font face=&quot;Verdana&quot;&gt;&lt;br&gt;&lt;/font&gt;&lt;ul&gt;&lt;li&gt;&lt;font face=&quot;Verdana&quot;&gt;&lt;u&gt;Géographie : &lt;/u&gt;Eux sont à hobbitebourg (centre de la carte), plus précisément à cul-de-sac, &quot; &lt;strong&gt;&lt;em&gt;Comme vous le savez, Grand-Cave se situe dans le quartier ouest&lt;/em&gt;&lt;/strong&gt;,&lt;strong&gt;&lt;em&gt;&lt;br&gt; à environ 12 lieues par la route principale. Néanmoins, il n&#39;est pas &lt;br&gt;envisageable d&#39;emprunter que votre équipée traverse benoîtement le quart&lt;br&gt; de la Comté sans éveiller les soupçons des si nombreux curieux de &lt;br&gt;Hobbitebourg et Lézeau. Vous emprunterez les chemins détournés, car &lt;br&gt;c&#39;est bien cela que nécessite une bonne aventure, et je sais de quoi je &lt;br&gt;parle.&quot;. &lt;/em&gt;&lt;/strong&gt;&lt;em&gt;Bilbo leur présente ensuite l&#39;itinéraire : &lt;br&gt;ils devront se rendre vers le Norrd jusqu&#39;à par-delà la colline puis &lt;br&gt;bifurquer vers l&#39;ouest et traverser la campagne avant de franchir l&#39;Eau à&lt;br&gt; gué. Ils pourront ensuite reprendre temporairement la route de Lézeau &lt;br&gt;avant de bifurquer vers le sud-ouest pour à travers la campagne pour &lt;br&gt;récupérer la route de l&#39;Est et rejoindre Le Carrefour où ils pourront &lt;br&gt;passer la nuit. Ils pourront ensuite rejoindre Grand-Cave le lendemain. &lt;/em&gt;&lt;/font&gt;&lt;/li&gt;&lt;li&gt;&lt;font face=&quot;Verdana&quot;&gt;&lt;u&gt;Pourquoi ne pas le faire lui-même:&lt;/u&gt;&lt;br&gt; sa célébrité l&#39;empêcherait sans aucun doute de se rendre à Grand-Cave &lt;br&gt;en toute discrétion. Il serait reconnu sur le trajet, les gens seraient &lt;br&gt;alertés de sa présence et méfiant. Il est &quot;Sacquet le Fou&quot; après tout.&lt;/font&gt;&lt;/li&gt;&lt;li&gt;&lt;font face=&quot;Verdana&quot;&gt;&lt;u&gt;Chronologie : &lt;/u&gt;Nous sommes en l&#39;an 1360 du comput de la Comté (soit l&#39;an 2960 du 3ème âge de la Terre du Milieu). Le voyage de Bilbo s&#39;est déroulé en l&#39;an &lt;br&gt;1341, il y a 20 ans de ça.&lt;/font&gt;&lt;/li&gt;&lt;li&gt;&lt;font face=&quot;Verdana&quot;&gt;&lt;u&gt;La législation&lt;/u&gt;: Bilbo leur demande bien d&#39;effectuer un cambriolage, ce qui est donc illégal. Les forces de l&#39;ordre au quotidient sont représentées par &lt;strong&gt;Le Guet&lt;/strong&gt; constitué de douze &lt;strong&gt;Shirriffes &lt;/strong&gt;- 3 par quartier - ainsi que de &lt;strong&gt;Frontaliers, &lt;/strong&gt;chargés de patrouiller aux limites de la Comté pour surveiller si des fauteurs &lt;br&gt;de trouble devaient pénétrer. La Comté étant particulièrement calme, ce &lt;br&gt;sont plutôt des fouineurs fainéants passant plus de temps à traîner dans&lt;br&gt; les auberges à boire, qu&#39;à réellement travailler au maintien de &lt;br&gt;l&#39;ordre.&lt;/font&gt;&lt;/li&gt;&lt;li&gt;&lt;font face=&quot;Verdana&quot;&gt;&lt;u&gt;Le mot Mathom&lt;/u&gt; désigne des choses inutiles mais qu&#39;on ne souhaite pas jeter. La maison des mathom est le nom donnée aux musées hobbits.&lt;/font&gt;&lt;/li&gt;&lt;/ul&gt;&lt;font face=&quot;Verdana&quot;&gt;&lt;br&gt;&lt;br&gt;&lt;/font&gt;&lt;/div&gt;&lt;div&gt;&lt;div align=&quot;center&quot;&gt;&lt;font face=&quot;Verdana&quot;&gt;&lt;br&gt;&lt;/font&gt;&lt;/div&gt;&lt;font face=&quot;Verdana&quot;&gt;&lt;br&gt;&lt;/font&gt;&lt;/div&gt;" style="rounded=0;whiteSpace=wrap;html=1;align=right;" vertex="1" parent="1">
          <mxGeometry x="-380" y="35" width="520" height="580" as="geometry" />
        </mxCell>
        <mxCell id="0SDqDW_UJInsYtl1_myY-9" value="" style="endArrow=classic;html=1;rounded=0;exitX=1;exitY=0.5;exitDx=0;exitDy=0;entryX=0;entryY=0.5;entryDx=0;entryDy=0;" edge="1" parent="1" source="0SDqDW_UJInsYtl1_myY-5" target="0SDqDW_UJInsYtl1_myY-8">
          <mxGeometry width="50" height="50" relative="1" as="geometry">
            <mxPoint x="-860" y="320" as="sourcePoint" />
            <mxPoint x="-810" y="270" as="targetPoint" />
          </mxGeometry>
        </mxCell>
        <mxCell id="0SDqDW_UJInsYtl1_myY-11" value="&lt;div&gt;&lt;div&gt;&lt;div&gt;&lt;strong&gt;Scénario 1 : une conspiration complètement timbrée&lt;/strong&gt;&lt;/div&gt;&lt;/div&gt;&lt;/div&gt;" style="shape=process;whiteSpace=wrap;html=1;backgroundOutline=1;" vertex="1" parent="1">
          <mxGeometry x="-1430" y="285" width="150" height="80" as="geometry" />
        </mxCell>
        <mxCell id="0SDqDW_UJInsYtl1_myY-14" value="" style="endArrow=classic;html=1;rounded=0;entryX=0;entryY=0.5;entryDx=0;entryDy=0;exitX=1;exitY=0.5;exitDx=0;exitDy=0;" edge="1" parent="1" source="0SDqDW_UJInsYtl1_myY-8" target="0SDqDW_UJInsYtl1_myY-19">
          <mxGeometry width="50" height="50" relative="1" as="geometry">
            <mxPoint x="-40" y="470" as="sourcePoint" />
            <mxPoint x="300" y="325" as="targetPoint" />
          </mxGeometry>
        </mxCell>
        <mxCell id="0SDqDW_UJInsYtl1_myY-16" value="&lt;p align=&quot;left&quot;&gt;&lt;strong&gt;Sauron : &lt;/strong&gt;Contre toute attente, un épais brouillard se lève soudainement semblant descendre des Landes du Nord. La visibilité est grandement réduite et vous ralentissez drastiquement. De plus d&#39;étranges grognements semblent surgir à travers la brume sans que vous puissiez identifier leur origine. Ce phénomène ne semble pas naturel ! Après vous être égaré plusieurs fois vous parvenez péniblement à Par-delà la colline. Vous avez parcouru une lieue et demi tout au plus et la journée est terminée. &lt;strong&gt;4 points de fatigue + test de VAILLANCE (sinon pas de repos prolongé)&lt;/strong&gt;&lt;/p&gt;" style="rounded=0;whiteSpace=wrap;html=1;align=left;" vertex="1" parent="1">
          <mxGeometry x="870" y="20" width="460" height="140" as="geometry" />
        </mxCell>
        <mxCell id="0SDqDW_UJInsYtl1_myY-18" value="&#xa;&lt;p&gt;&lt;/p&gt;&lt;p&gt;&lt;strong&gt;1-4 : vous croisez Gerda Bophin&lt;/strong&gt; : &quot;C&#39;est Gerda Bophin ! Elle se rend certainement à la forêt de Bindbol. On y trouve les meilleurs coins à champignons de toute la Comté. Je le sais car mon second cousin du côté de ma mère l&#39;a entendu. Son célébrissime ragoût contiendrait un ingrédient secret. Elle n&#39;est plus toute jeune et elle risque de l&#39;emporter dans sa tombe ; suivons-la discrètement ! =&amp;gt; &lt;strong&gt;Le ragoût de gerda Bophin puis 3 pts de fatigue. &lt;/strong&gt;&lt;/p&gt;&#xa;&#xa;" style="rounded=0;whiteSpace=wrap;html=1;" vertex="1" parent="1">
          <mxGeometry x="870" y="200" width="460" height="150" as="geometry" />
        </mxCell>
        <mxCell id="0SDqDW_UJInsYtl1_myY-19" value="&#xa;&lt;div style=&quot;line-height: 90%;&quot;&gt;&lt;br&gt;&lt;p&gt;&lt;strong&gt;REGLE DU VOYAGE p10 de La Comté&lt;/strong&gt;&lt;/p&gt;&lt;p&gt;&lt;/p&gt;&lt;p&gt;Le matin est clair et ensoleillé et une balade est parfaitement appropriée.&lt;/p&gt;&lt;p&gt;&lt;/p&gt;&lt;p&gt;&lt;i&gt;Les PJs choisissent chacun un objet parmi la liste suivante en plus de celui possédé &lt;/i&gt;:&lt;/p&gt;&lt;p&gt;·&lt;em&gt;Un couteau de chasse pour écorcher les lapins, &lt;/em&gt;&lt;/p&gt;&lt;p&gt;·&lt;em&gt;une petite boîte contenant du sel de cuisine (CHASSE),&lt;/em&gt;&lt;/p&gt;&lt;p&gt;·&lt;em&gt;Quelques mètres de corde et un grappin pour escalader une paroi (ATHLÉTISME)&lt;/em&gt;&lt;/p&gt;&lt;p&gt;·&lt;em&gt;Une lanterne à l’épreuve du vent (INSPECTION ),&lt;/em&gt;&lt;/p&gt;&lt;p&gt;·&lt;em&gt;Un instrument de musique exotique (CHANT ),&lt;/em&gt;&lt;/p&gt;&lt;p&gt;·&lt;em&gt;Un baume apaisant (SOINS),&lt;/em&gt;&lt;/p&gt;&lt;p&gt;·&lt;em&gt;Des vêtements coûteux, des boucles d’oreille en perles (PRÉSENCE ou COURTOISIE ),&lt;/em&gt;&lt;/p&gt;&lt;p&gt;·&lt;em&gt;Une boisson qui donne des forces (INSPIRATION),&lt;/em&gt;&lt;/p&gt;&lt;p&gt;·&lt;em&gt;Une héliolite, permettant de naviguer par mauvais temps (VOYAGE),&lt;/em&gt;&lt;/p&gt;&lt;p&gt;·&lt;em&gt;Une pipe de bonne qualité pour se détendre (INTUITION ),&lt;/em&gt;&lt;/p&gt;&lt;p&gt;·&lt;em&gt;Des cartes détaillées d’une région (EXPLORATION),&lt;/em&gt;&lt;/p&gt;&lt;p&gt;·&lt;em&gt;Des instruments pour tailler la pierre (ARTISANAT).&lt;/em&gt;&lt;/p&gt;&lt;p&gt;&lt;/p&gt;&lt;p&gt;&lt;strong&gt;Après vos préparatifs, vous voilà parti !&lt;/strong&gt;&lt;/p&gt;&lt;p&gt;&lt;/p&gt;&lt;p&gt;&lt;strong&gt;&lt;em&gt;Dé du destin pour 1ère hexagone&lt;/em&gt;&lt;/strong&gt;&lt;/p&gt;&lt;br&gt;&lt;br&gt;&lt;/div&gt;&#xa;&#xa;" style="rounded=0;whiteSpace=wrap;html=1;" vertex="1" parent="1">
          <mxGeometry x="300" y="30" width="330" height="590" as="geometry" />
        </mxCell>
        <mxCell id="0SDqDW_UJInsYtl1_myY-20" value="&#xa;&lt;p&gt;&lt;strong&gt;5-8 : &lt;/strong&gt;tout se déroule bien et vous atteignez sans encombre le passage à Gué à l&#39;ouest de Par-delà-la-colline : &lt;strong&gt;2 pts de fatigue&lt;/strong&gt;&lt;/p&gt;&#xa;&#xa;" style="rounded=0;whiteSpace=wrap;html=1;" vertex="1" parent="1">
          <mxGeometry x="870" y="400" width="260" height="90" as="geometry" />
        </mxCell>
        <mxCell id="0SDqDW_UJInsYtl1_myY-22" value="&#xa;&lt;p&gt;&lt;strong&gt;9-10 : connaisseur affuté du quartier, &lt;/strong&gt;vous coupez vers l&#39;ouest avant d&#39;atteindre par delà-la-colline et rejoignez l&#39;Eau plus vite que prévue : &lt;strong&gt;1 pts de fatigue&lt;/strong&gt;&lt;/p&gt;&#xa;&#xa;" style="rounded=0;whiteSpace=wrap;html=1;" vertex="1" parent="1">
          <mxGeometry x="870" y="525" width="250" height="120" as="geometry" />
        </mxCell>
        <UserObject label="&#xa;&lt;strong&gt;Gandalf : &lt;/strong&gt;un improbable marchant itinérant nain croise votre route. Lors des présentations, il est enchanté d&#39;apprendre qu&#39;il est en présence d&#39;un Saquet : &quot;un parent de Bilbo Sacquet ! &lt;em&gt;Norn Mellon !&quot; &lt;/em&gt;Il fouille alors dans sa charette et vous offre une épée courte et une arc de bel.le.s facture. &quot;Vous me semblez aventureux. Cela vous aidera contre les tours du destin ! Que vos poils de pieds ne tombent jamais et que la barbe vous pousse toujours plus longue ! &quot;&#xa;&#xa;" link="&#xa;&lt;strong&gt;Gandalf : &lt;/strong&gt;un improbable marchant itinérant nain croise votre route. Lors des présentations, il est enchanté d&#39;apprendre qu&#39;il est en présence d&#39;un Saquet : &quot;un parent de Bilbo Sacquet ! &lt;em&gt;Norn Mellon !&quot; &lt;/em&gt;Il fouille alors dans sa charette et vous offre une épée courte et une arc de bel.le.s facture. &quot;Vous me semblez aventureux. Cela vous aidera contre les tours du destin ! Que vos poils de pieds ne tombent jamais et que la barbe vous pousse toujours plus longue ! &quot;&#xa;&#xa;" id="0SDqDW_UJInsYtl1_myY-23">
          <mxCell style="rounded=0;whiteSpace=wrap;html=1;" vertex="1" parent="1">
            <mxGeometry x="870" y="670" width="350" height="170" as="geometry" />
          </mxCell>
        </UserObject>
        <mxCell id="0SDqDW_UJInsYtl1_myY-24" value="" style="endArrow=classic;html=1;rounded=0;exitX=1;exitY=0.5;exitDx=0;exitDy=0;entryX=0;entryY=0.5;entryDx=0;entryDy=0;" edge="1" parent="1" source="0SDqDW_UJInsYtl1_myY-19" target="0SDqDW_UJInsYtl1_myY-23">
          <mxGeometry width="50" height="50" relative="1" as="geometry">
            <mxPoint x="800" y="420" as="sourcePoint" />
            <mxPoint x="850" y="370" as="targetPoint" />
          </mxGeometry>
        </mxCell>
        <mxCell id="0SDqDW_UJInsYtl1_myY-25" value="" style="endArrow=classic;html=1;rounded=0;exitX=1;exitY=0.5;exitDx=0;exitDy=0;entryX=0;entryY=0.5;entryDx=0;entryDy=0;" edge="1" parent="1" source="0SDqDW_UJInsYtl1_myY-19" target="0SDqDW_UJInsYtl1_myY-16">
          <mxGeometry width="50" height="50" relative="1" as="geometry">
            <mxPoint x="800" y="420" as="sourcePoint" />
            <mxPoint x="850" y="370" as="targetPoint" />
          </mxGeometry>
        </mxCell>
        <mxCell id="0SDqDW_UJInsYtl1_myY-26" value="" style="endArrow=classic;html=1;rounded=0;exitX=1;exitY=0.5;exitDx=0;exitDy=0;entryX=0;entryY=0.5;entryDx=0;entryDy=0;" edge="1" parent="1" source="0SDqDW_UJInsYtl1_myY-19" target="0SDqDW_UJInsYtl1_myY-18">
          <mxGeometry width="50" height="50" relative="1" as="geometry">
            <mxPoint x="800" y="420" as="sourcePoint" />
            <mxPoint x="850" y="370" as="targetPoint" />
          </mxGeometry>
        </mxCell>
        <mxCell id="0SDqDW_UJInsYtl1_myY-27" value="" style="endArrow=classic;html=1;rounded=0;exitX=1;exitY=0.5;exitDx=0;exitDy=0;entryX=0;entryY=0.5;entryDx=0;entryDy=0;" edge="1" parent="1" source="0SDqDW_UJInsYtl1_myY-19" target="0SDqDW_UJInsYtl1_myY-20">
          <mxGeometry width="50" height="50" relative="1" as="geometry">
            <mxPoint x="800" y="420" as="sourcePoint" />
            <mxPoint x="850" y="370" as="targetPoint" />
          </mxGeometry>
        </mxCell>
        <mxCell id="0SDqDW_UJInsYtl1_myY-28" value="" style="endArrow=classic;html=1;rounded=0;exitX=1;exitY=0.5;exitDx=0;exitDy=0;entryX=0;entryY=0.5;entryDx=0;entryDy=0;" edge="1" parent="1" source="0SDqDW_UJInsYtl1_myY-19" target="0SDqDW_UJInsYtl1_myY-22">
          <mxGeometry width="50" height="50" relative="1" as="geometry">
            <mxPoint x="800" y="420" as="sourcePoint" />
            <mxPoint x="850" y="370" as="targetPoint" />
          </mxGeometry>
        </mxCell>
        <mxCell id="0SDqDW_UJInsYtl1_myY-29" value="&#xa;&lt;p&gt;&lt;strong&gt;Auberge de par-Delà La Colline&lt;/strong&gt;&lt;/p&gt;&lt;p&gt;Il est déjà tard quand vous parvenez à l&#39;auberge. L&#39;aubergiste ne peut que vous proposer une chambre sommaire mais qui vous permet tout-de-même de récupérer :&lt;/p&gt;&lt;ul&gt;&lt;li&gt;TEST DE VOYAGE : 1 point +1 par symbole Tau&lt;/li&gt;&lt;li&gt;Repos prolongée : 1 point&lt;/li&gt;&lt;/ul&gt;&lt;p&gt;Vous repartez le lendemain matin en direction de l&#39;Eau et du passage à gué.&lt;/p&gt;&lt;p&gt;&lt;/p&gt;&lt;p&gt;&lt;/p&gt;&#xa;&#xa;" style="rounded=1;whiteSpace=wrap;html=1;" vertex="1" parent="1">
          <mxGeometry x="1880" y="100" width="406" height="190" as="geometry" />
        </mxCell>
        <mxCell id="0SDqDW_UJInsYtl1_myY-30" value="&#xa;&lt;p&gt;&lt;strong&gt;Le ragoût de Gerda Bophin&lt;/strong&gt;&lt;/p&gt;&lt;p&gt;La Comté p17&lt;/p&gt;&#xa;&#xa;" style="rounded=1;whiteSpace=wrap;html=1;" vertex="1" parent="1">
          <mxGeometry x="1520" y="250" width="270" height="65" as="geometry" />
        </mxCell>
        <mxCell id="0SDqDW_UJInsYtl1_myY-31" value="" style="endArrow=classic;html=1;rounded=0;exitX=1;exitY=0.5;exitDx=0;exitDy=0;entryX=0;entryY=0.75;entryDx=0;entryDy=0;" edge="1" parent="1" source="0SDqDW_UJInsYtl1_myY-30" target="0SDqDW_UJInsYtl1_myY-29">
          <mxGeometry width="50" height="50" relative="1" as="geometry">
            <mxPoint x="1120" y="410" as="sourcePoint" />
            <mxPoint x="1170" y="360" as="targetPoint" />
          </mxGeometry>
        </mxCell>
        <mxCell id="0SDqDW_UJInsYtl1_myY-32" value="" style="endArrow=classic;html=1;rounded=0;exitX=1;exitY=0.5;exitDx=0;exitDy=0;entryX=0;entryY=0.5;entryDx=0;entryDy=0;" edge="1" parent="1" source="0SDqDW_UJInsYtl1_myY-16" target="0SDqDW_UJInsYtl1_myY-29">
          <mxGeometry width="50" height="50" relative="1" as="geometry">
            <mxPoint x="1120" y="410" as="sourcePoint" />
            <mxPoint x="1170" y="360" as="targetPoint" />
          </mxGeometry>
        </mxCell>
        <mxCell id="0SDqDW_UJInsYtl1_myY-33" value="" style="endArrow=classic;html=1;rounded=0;exitX=1;exitY=0.5;exitDx=0;exitDy=0;entryX=0;entryY=0.5;entryDx=0;entryDy=0;" edge="1" parent="1" source="0SDqDW_UJInsYtl1_myY-18" target="0SDqDW_UJInsYtl1_myY-30">
          <mxGeometry width="50" height="50" relative="1" as="geometry">
            <mxPoint x="1120" y="410" as="sourcePoint" />
            <mxPoint x="1170" y="360" as="targetPoint" />
          </mxGeometry>
        </mxCell>
        <mxCell id="0SDqDW_UJInsYtl1_myY-35" value="&lt;div align=&quot;left&quot;&gt;&lt;br&gt;&lt;/div&gt;&lt;p align=&quot;left&quot;&gt;&lt;strong&gt;Passage à gué&lt;/strong&gt;&lt;/p&gt;&lt;p align=&quot;left&quot;&gt;Vous atteignez enfin le passage à gué mais force est de constater qu&#39;avec les fortes pluies récentes, il n&#39;a plus de gué que le nom.&lt;/p&gt;&lt;div align=&quot;left&quot;&gt;&lt;ul&gt;&lt;li&gt;Traverser à la nage : TEST d&#39;ATHLETISME:&lt;ul&gt;&lt;li&gt;Réussite :  Un symbole \tau permet d&#39;aider un compagnon qui rencontrerait des difficultés (+1 D6)&lt;/li&gt;&lt;li&gt;Echec : retour sur la rive initiale toussant et crachant de l&#39;eau.&lt;/li&gt;&lt;/ul&gt;&lt;/li&gt;&lt;li&gt;Recherche d&#39;un moyen de traverser au sec : TEST d&#39;INSPECTION :&lt;ul&gt;&lt;li&gt;Réussite : on repère un grand rondin creux sur la berge opposée qui pourrait servir de radeau mais il va falloir se montrer inventif pour l&#39;amener à vous :&lt;ul&gt;&lt;li&gt;TEST d&#39;ATHLETISME (corde + crochet à lancer).&lt;/li&gt;&lt;li&gt;TEST d&#39;ARCS (s&#39;ils ont un arc et des flèches et une corde)&lt;/li&gt;&lt;/ul&gt;&lt;/li&gt;&lt;/ul&gt;&lt;/li&gt;&lt;/ul&gt;&lt;/div&gt;&lt;p align=&quot;left&quot;&gt;+1D est accordé si le personnage est INSPIRÉ (c&#39;est à dire si l&#39;une de ses particularités correspond bien à la situation, par exemple les tests d&#39;ATHLETISME et RUSTIQUE)&lt;/p&gt;&lt;div align=&quot;left&quot;&gt;&lt;br&gt;&lt;br&gt;&lt;/div&gt;" style="rounded=1;whiteSpace=wrap;html=1;align=left;" vertex="1" parent="1">
          <mxGeometry x="1893" y="410" width="380" height="460" as="geometry" />
        </mxCell>
        <mxCell id="0SDqDW_UJInsYtl1_myY-36" value="" style="endArrow=classic;html=1;rounded=0;entryX=0;entryY=0.5;entryDx=0;entryDy=0;exitX=1;exitY=0.5;exitDx=0;exitDy=0;" edge="1" parent="1" source="0SDqDW_UJInsYtl1_myY-20" target="0SDqDW_UJInsYtl1_myY-35">
          <mxGeometry width="50" height="50" relative="1" as="geometry">
            <mxPoint x="1160" y="480" as="sourcePoint" />
            <mxPoint x="1210" y="430" as="targetPoint" />
          </mxGeometry>
        </mxCell>
        <mxCell id="0SDqDW_UJInsYtl1_myY-37" value="" style="endArrow=classic;html=1;rounded=0;entryX=0;entryY=0.5;entryDx=0;entryDy=0;exitX=1;exitY=0.5;exitDx=0;exitDy=0;" edge="1" parent="1" source="0SDqDW_UJInsYtl1_myY-22" target="0SDqDW_UJInsYtl1_myY-35">
          <mxGeometry width="50" height="50" relative="1" as="geometry">
            <mxPoint x="1160" y="480" as="sourcePoint" />
            <mxPoint x="1210" y="430" as="targetPoint" />
          </mxGeometry>
        </mxCell>
        <mxCell id="0SDqDW_UJInsYtl1_myY-38" value="" style="endArrow=classic;html=1;rounded=0;entryX=0;entryY=0.5;entryDx=0;entryDy=0;exitX=1;exitY=0.5;exitDx=0;exitDy=0;" edge="1" parent="1" source="0SDqDW_UJInsYtl1_myY-23" target="0SDqDW_UJInsYtl1_myY-35">
          <mxGeometry width="50" height="50" relative="1" as="geometry">
            <mxPoint x="1160" y="480" as="sourcePoint" />
            <mxPoint x="1210" y="430" as="targetPoint" />
          </mxGeometry>
        </mxCell>
        <mxCell id="0SDqDW_UJInsYtl1_myY-39" value="" style="endArrow=classic;html=1;rounded=0;entryX=0.5;entryY=0;entryDx=0;entryDy=0;exitX=0.5;exitY=1;exitDx=0;exitDy=0;" edge="1" parent="1" source="0SDqDW_UJInsYtl1_myY-29" target="0SDqDW_UJInsYtl1_myY-35">
          <mxGeometry width="50" height="50" relative="1" as="geometry">
            <mxPoint x="1160" y="480" as="sourcePoint" />
            <mxPoint x="1210" y="430" as="targetPoint" />
          </mxGeometry>
        </mxCell>
      </root>
    </mxGraphModel>
  </diagram>
</mxfile>
